<svg width="247" height="378" viewBox="0 0 247 378" fill="none" xmlns="http://www.w3.org/2000/svg">
<path fill-rule="evenodd" clip-rule="evenodd" d="M117.271 15.7939C115.048 18.4299 112.493 22.8179 111.595 25.5439C102.562 52.9439 102.503 53.189 102.417 63.5C102.308 76.701 102.528 75.9999 98.489 75.9999C82.772 75.9999 68.974 52.452 74.055 34.3029C75.379 29.5759 73.307 26.0899 69.134 26.0219C63.83 25.9359 53.166 39.071 52.471 46.546C52.299 48.405 51.609 53.3229 50.94 57.4739C49.681 65.2729 50.137 75.2509 51.845 77.3189C54.601 80.6549 53.855 91.9999 50.88 91.9999C48.12 91.9999 38.132 104.799 39.682 106.349C40.014 106.68 39.817 107.525 39.246 108.226C38.675 108.927 37.974 113.1 37.689 117.5C36.311 138.812 31.931 154.527 22.502 172C18.834 178.797 15.694 193.576 16.161 201.845C16.513 208.068 16.901 209.15 20.027 212.631C21.938 214.759 25.026 218.886 26.889 221.803C29.355 225.663 31.064 227.263 33.174 227.685C34.767 228.003 36.52 229.103 37.069 230.129C37.618 231.154 39.783 232.869 41.881 233.939C47.114 236.609 49.307 240.19 48.549 244.829C47.938 248.571 49.09 264.094 51.048 278.5C51.646 282.9 52.324 288.525 52.554 291C52.785 293.475 53.414 298.2 53.954 301.5C54.494 304.8 55.455 312.225 56.09 318C56.725 323.775 57.828 330.75 58.54 333.5C59.253 336.25 60.132 340.3 60.493 342.5C61.438 348.26 65.159 354.084 72.669 361.557L79.247 368.103L105.973 372C160.729 370.787 158.998 366.436 165.299 363.962C174.939 360.177 186.007 344.485 188.899 330.5C191.05 320.101 192.281 313.323 192.985 308C193.386 304.975 194.197 299.35 194.788 295.5C198.762 269.594 200.549 245.264 198.632 243.146C197.289 241.662 197.258 240.839 198.396 236.967C199.656 232.678 199.932 232.44 205.299 230.997C213.186 228.875 229 213.212 229 207.52C229 206.629 229.731 204.487 230.624 202.759C234.259 195.732 231.21 176.249 225.205 168.128C221.336 162.895 216.493 150.367 214.717 141C212.273 128.106 210.827 117.288 211.071 113.713C211.811 102.882 211.629 102.458 202.333 93.3069L193.666 84.7759L195.492 81.3849C197.63 77.4139 198.917 71.261 199.663 61.429C201.018 43.594 184.975 20.1039 176.039 26.8379C173.541 28.7199 173.506 28.9369 173.84 40.1259C174.344 56.9689 169.392 67.2639 158.061 72.9339C147.499 78.2199 145 76.773 145 65.369C145 55.828 144.786 54.9169 135.48 24.7879C131.046 10.4339 124.512 7.20695 117.271 15.7939ZM156.5 107.869C145.473 110.139 137 114.356 137 117.574C137 119.009 136.417 120 135.572 120C133.65 120 132.539 129.196 133.421 137.805C134.664 149.938 141.875 159.365 155 166.014C160.845 168.975 168.578 174.933 168.219 176.198C168.064 176.742 168.51 176.997 169.21 176.763C169.91 176.53 171.049 176.906 171.742 177.599C173.507 179.365 183.461 181.277 186.925 180.517C195.803 178.567 200.378 159.891 196.483 141.5C195.667 137.651 195 133.519 195 132.32C195 131.12 194.063 128.645 192.917 126.819C191.278 124.195 189.655 121.561 188.046 118.918C185.191 114.227 177.36 109.174 170.5 107.595C168.85 107.216 166.825 106.751 166 106.563C165.175 106.375 160.9 106.963 156.5 107.869ZM75 108.879C64.044 112.469 51.001 126.234 50.999 134.21C50.999 135.47 50.095 138.879 48.989 141.787C45.609 150.681 46.576 168.743 50.611 172.092C51.375 172.726 52.013 173.752 52.029 174.372C52.072 176.029 57.753 182 59.286 182C60.009 182 61.119 182.519 61.754 183.154C63.357 184.757 71.051 181.793 77.5 177.089C80.25 175.082 83.625 172.679 85 171.748C86.375 170.818 89.75 168.475 92.5 166.543C95.25 164.611 97.971 163.024 98.547 163.015C100.044 162.993 106.334 156.206 109.219 151.5C116.75 139.216 117.054 122.915 109.876 116.308C103.017 109.995 83.974 105.939 75 108.879ZM123 159.784C120.327 160.701 116.537 164.096 115 166.951C113.727 169.306 112.447 171.658 111.16 174.005C108.459 178.932 103.028 196.289 103.011 200.05C102.99 204.779 108.928 206.807 113.527 203.643C118.612 200.144 125.176 199.733 131.29 202.533C140.213 206.617 142.548 205.387 142.349 196.704C141.982 180.634 129.828 157.444 123 159.784ZM105.973 230.25C104.912 232.588 104.034 235.028 104.022 235.673C103.983 237.76 98.88 243 96.886 243C94.651 243 93 239.446 93 234.635C93 231.087 91.502 229 88.955 229C84.034 229 81.847 239.407 83.328 255.774C84.511 268.838 83.518 272.154 78.247 272.746C74.299 273.19 73.377 271.385 71.647 259.837C70.333 251.056 64.166 241.847 62.196 245.723C59.876 250.291 62.397 277.895 68.029 309.593C69.113 315.694 70 322.305 70 324.284C70 326.263 70.395 328.126 70.877 328.424C71.359 328.722 72.254 330.886 72.865 333.233C74.7 340.276 78 342.481 78 336.663C78 333.671 80.701 330 82.902 330C85.322 330 87.352 332.494 90 338.719C93.133 346.086 94.334 346.819 97.113 343.06C99.993 339.165 102.33 339.19 105.766 343.153C115.468 354.342 113.096 353.493 128.687 351.358C133.417 350.711 134.875 349.627 139.826 343.077C142.919 338.985 148.44 338.678 150.182 342.5C151.904 346.279 152.829 345.617 156.125 338.25C160.493 328.487 160.499 328.479 163.512 328.705C166.979 328.965 167.185 329.2 167.923 333.739C168.669 338.328 171.11 338.765 172.173 334.5C176.909 315.498 178 310.365 178 307.096C178 304.994 178.426 301.026 178.947 298.28C179.953 292.977 182.477 270.678 183.539 257.722C184.03 251.723 184.694 249.322 186.443 247.222C190.187 242.727 190.472 235.438 186.96 233.984C181.309 231.643 177.624 236.266 176.587 247C174.966 263.772 173.151 267.42 165.8 268.681C163.232 269.121 163.153 268.664 162.574 250.12C161.98 231.062 162.058 231.435 158.521 230.759C155.372 230.157 153.608 232.169 154.266 235.611C154.93 239.083 151.843 242.232 148.189 241.811C145.867 241.542 145.207 240.644 143.352 235.226C138.84 222.045 136.69 222.514 128.421 238.485C124.409 246.233 120.756 244.164 113.88 230.25C112.488 227.434 111.126 226 109.841 226C108.529 226 107.278 227.375 105.973 230.25Z" fill="white"/>
</svg>
